<?xml version="1.0" encoding="utf-8"?>
<svg version="1.1" xmlns:xlink="http://www.w3.org/1999/xlink" width="30px" height="29px" xmlns="http://www.w3.org/2000/svg">
  <g transform="matrix(1 0 0 1 -774 -1122 )">
    <path d="M 29.2929292929293 21.6767676767677  C 29.7643097643098 22.1324354657688  30 22.685746352413  30 23.3367003367003  C 30 23.9876543209877  29.7643097643098 24.5409652076319  29.2929292929293 24.996632996633  L 25.8585858585859 28.3164983164983  C 25.3872053872054 28.7721661054994  24.8148148148148 29  24.1414141414141 29  C 23.4680134680135 29  22.8956228956229 28.7721661054994  22.4242424242424 28.3164983164983  L 15 21.1397306397306  L 7.57575757575758 28.3164983164983  C 7.10437710437711 28.7721661054994  6.53198653198653 29  5.85858585858586 29  C 5.18518518518519 29  4.61279461279461 28.7721661054994  4.14141414141414 28.3164983164983  L 0.707070707070707 24.996632996633  C 0.235690235690236 24.5409652076319  0 23.9876543209877  0 23.3367003367003  C 0 22.685746352413  0.235690235690236 22.1324354657688  0.707070707070707 21.6767676767677  L 8.13131313131313 14.5  L 0.707070707070707 7.32323232323232  C 0.235690235690236 6.8675645342312  0 6.31425364758698  0 5.66329966329966  C 0 5.01234567901235  0.235690235690236 4.45903479236812  0.707070707070707 4.003367003367  L 4.14141414141414 0.683501683501684  C 4.61279461279461 0.22783389450056  5.18518518518519 0  5.85858585858586 0  C 6.53198653198653 0  7.10437710437711 0.22783389450056  7.57575757575758 0.683501683501684  L 15 7.86026936026936  L 22.4242424242424 0.683501683501684  C 22.8956228956229 0.22783389450056  23.4680134680135 0  24.1414141414141 0  C 24.8148148148148 0  25.3872053872054 0.22783389450056  25.8585858585859 0.683501683501684  L 29.2929292929293 4.003367003367  C 29.7643097643098 4.45903479236812  30 5.01234567901235  30 5.66329966329966  C 30 6.31425364758698  29.7643097643098 6.8675645342312  29.2929292929293 7.32323232323232  L 21.8686868686869 14.5  L 29.2929292929293 21.6767676767677  Z " fill-rule="nonzero" fill="#000000" stroke="none" transform="matrix(1 0 0 1 774 1122 )" />
  </g>
</svg>